# xmcd
#
# Track frame offsets:
#	150
#	16060
#	28232
#	39977
#	55802
#	77042
#	89335
#	100817
#	116287
#	130075
#	145000
#	162900
#	172245
#	187092
#	209220
#	222750
#	238900
#	254995
#	279512
#	290750
#	307500
#	318125
#	330477
#
# Disc length: 4547 seconds
#
# Revision: 1
# Processed by: cddbd v1.4PL0 Copyright (c) Steve Scherf et al.
# Submitted via: audiograbber 1.81.03
#
DISCID=4f11c117
DTITLE=Linda Ronstadt - Box Set  Disk 4 Rarities
DYEAR=1900
DGENRE=
TTITLE0=Gainesville
TTITLE1=Sandman's Coming
TTITLE2=My Hero
TTITLE3=All I Have To Do Is Dream
TTITLE4=Dreams To Dream
TTITLE5=The Blacksmith
TTITLE6=Bandit and A Heartbreaker
TTITLE7=Keep Me From Blowing Away
TTITLE8=The Sweetest Gift
TTITLE9=Freezing
TTITLE10=Poor Wandering One
TTITLE11=Sorry Her Lot
TTITLE12=I Want A Horse
TTITLE13=All That You Dream
TTITLE14=Hearts Against The Wind
TTITLE15=Tumbling Dice
TTITLE16=Boarder Town
TTITLE17=Falling Star
TTITLE18=Honky Tonk Blues
TTITLE19=Lightning Bar Blues
TTITLE20=Why
TTITLE21=I'd Like To Know
TTITLE22=Everybody Has Their Own Ideas
EXTD=
EXTT0=
EXTT1=
EXTT2=
EXTT3=
EXTT4=
EXTT5=
EXTT6=
EXTT7=
EXTT8=
EXTT9=
EXTT10=
EXTT11=
EXTT12=
EXTT13=
EXTT14=
EXTT15=
EXTT16=
EXTT17=
EXTT18=
EXTT19=
EXTT20=
EXTT21=
EXTT22=
PLAYORDER=
